Coordinates
version=1
nRows=5
nColumns=40
inDegrees=yes

Units are S.I. units (second, meters, Newtons, ...)
Angles are in degrees.

endheader
time	pelvis_tilt	pelvis_list	pelvis_rotation	pelvis_tx	pelvis_ty	pelvis_tz	hip_flexion_r	hip_adduction_r	hip_rotation_r	knee_angle_r	knee_angle_r_beta	ankle_angle_r	subtalar_angle_r	mtp_angle_r	hip_flexion_l	hip_adduction_l	hip_rotation_l	knee_angle_l	knee_angle_l_beta	ankle_angle_l	subtalar_angle_l	mtp_angle_l	lumbar_extension	lumbar_bending	lumbar_rotation	arm_flex_r	arm_add_r	arm_rot_r	elbow_flex_r	pro_sup_r	wrist_flex_r	wrist_dev_r	arm_flex_l	arm_add_l	arm_rot_l	elbow_flex_l	pro_sup_l	wrist_flex_l	wrist_dev_l
     39.16000000	     -5.95135281	     -4.50053203	      4.45648556	      1.00954787	      0.92972485	      0.49415103	     13.66270527	      2.26939384	    -20.23697353	     15.64974889	     15.64974889	     10.94391951	      3.89203412	     -4.55732209	     37.74173030	    -12.02461622	      0.13408515	     39.07494826	     39.07494826	     10.83970135	    -15.77051600	     12.54724657	    -12.55859933	      6.11436508	      4.50991410	     31.94111054	    -15.71407535	      6.04474058	     51.13693036	     45.51596570	      0.00000000	      0.00000000	     -3.66957890	     -6.20591961	     -9.19354272	     39.34563113	     47.02299341	      0.00000000	      0.00000000
     39.17200000	     -5.97427839	     -4.52561350	      4.57026157	      1.00794583	      0.92940984	      0.49383382	     13.33455072	      2.29872196	    -20.20017374	     15.73801392	     15.73801392	     11.31979681	      3.77417585	     -4.59275547	     37.78352273	    -11.77629855	      0.17500598	     36.08382547	     36.08382547	     10.76280161	    -14.76211220	     12.58585357	    -12.57366755	      6.20985441	      4.29146183	     33.28960577	    -15.56361692	      6.18705906	     53.38546564	     45.43499843	      0.00000000	      0.00000000	     -4.45726677	     -6.28151220	     -9.49426707	     38.23194300	     47.03117330	      0.00000000	      0.00000000
     39.18400000	     -6.02244033	     -4.66074202	      4.70668032	      1.00637356	      0.92896914	      0.49337186	     13.02296194	      2.42020674	    -20.28885677	     15.82077321	     15.82077321	     11.82156879	      3.82071187	     -4.26820158	     37.82188160	    -11.61505070	      0.21640125	     33.12669675	     33.12669675	     10.16756721	    -13.75563235	     11.28389260	    -12.61479557	      6.45846095	      4.98800497	     33.09462510	    -17.05190527	      7.13236817	     59.42395529	     45.18442883	      0.00000000	      0.00000000	     -4.09720279	     -5.90444519	    -11.06105335	     35.75291325	     47.15295503	      0.00000000	      0.00000000
     39.19600000	     -6.04403792	     -4.68829883	      4.80916265	      1.00494277	      0.92867749	      0.49284766	     12.60451050	      2.46799823	    -20.26756797	     15.77101938	     15.77101938	     12.17349257	      3.76673600	     -4.33447050	     37.76876687	    -11.38862379	      0.02686026	     30.36091942	     30.36091942	     10.14199323	    -12.44508634	     11.52154130	    -12.58551531	      6.53931421	      4.67386078	     34.49100706	    -16.62546933	      6.99734447	     61.07753640	     45.14127124	      0.00000000	      0.00000000	     -4.94521912	     -6.08339532	    -11.17386649	     35.01177607	     47.14111733	      0.00000000	      0.00000000
     39.20800000	     -6.06633364	     -4.79472196	      4.95278816	      1.00358584	      0.92835878	      0.49208505	     12.14542323	      2.58295799	    -20.31508042	     15.64167159	     15.64167159	     12.49961327	      3.82184081	     -4.34368280	     37.74542547	    -11.21798192	     -0.21090268	     27.84655787	     27.84655787	     10.07455276	    -11.01487393	     11.62017164	    -12.54033554	      6.78044333	      4.27383104	     35.66497967	    -16.30201052	      7.00532649	     63.71927143	     45.05951187	      0.00000000	      0.00000000	     -5.66734970	     -6.17424033	    -11.35590107	     34.13129953	     47.13574174	      0.00000000	      0.00000000
